<?xml version="1.0" encoding="UTF-8"?><svg xmlns="http://www.w3.org/2000/svg" xmlns:xlink="http://www.w3.org/1999/xlink" fill-opacity="1" color-rendering="auto" color-interpolation="auto" text-rendering="auto" stroke="black" stroke-linecap="square" width="611" stroke-miterlimit="10" shape-rendering="auto" stroke-opacity="1" fill="black" stroke-dasharray="none" font-weight="normal" stroke-width="1" height="689" font-family="'Dialog'" font-style="normal" stroke-linejoin="miter" font-size="12px" stroke-dashoffset="0" image-rendering="auto">
  <!--Generated by ySVG 2.5-->
  <defs id="genericDefs"/>
  <g>
    <defs id="defs1">
      <linearGradient x1="-227" gradientUnits="userSpaceOnUse" x2="-147" y1="-391" y2="-351" id="linearGradient1" spreadMethod="reflect">
        <stop stop-opacity="1" stop-color="rgb(232,238,247)" offset="0%"/>
        <stop stop-opacity="1" stop-color="rgb(183,201,227)" offset="100%"/>
      </linearGradient>
      <linearGradient x1="-261.5" gradientUnits="userSpaceOnUse" x2="-112.5" y1="-304" y2="-221" id="linearGradient2" spreadMethod="reflect">
        <stop stop-opacity="1" stop-color="rgb(232,238,247)" offset="0%"/>
        <stop stop-opacity="1" stop-color="rgb(183,201,227)" offset="100%"/>
      </linearGradient>
      <linearGradient x1="-273" gradientUnits="userSpaceOnUse" x2="-101" y1="-174" y2="-54" id="linearGradient3" spreadMethod="reflect">
        <stop stop-opacity="1" stop-color="rgb(232,238,247)" offset="0%"/>
        <stop stop-opacity="1" stop-color="rgb(183,201,227)" offset="100%"/>
      </linearGradient>
      <linearGradient x1="-261.5" gradientUnits="userSpaceOnUse" x2="-112.5" y1="-7" y2="76" id="linearGradient4" spreadMethod="reflect">
        <stop stop-opacity="1" stop-color="rgb(232,238,247)" offset="0%"/>
        <stop stop-opacity="1" stop-color="rgb(183,201,227)" offset="100%"/>
      </linearGradient>
      <linearGradient x1="-261.5" gradientUnits="userSpaceOnUse" x2="-112.5" y1="123" y2="206" id="linearGradient5" spreadMethod="reflect">
        <stop stop-opacity="1" stop-color="rgb(232,238,247)" offset="0%"/>
        <stop stop-opacity="1" stop-color="rgb(183,201,227)" offset="100%"/>
      </linearGradient>
      <linearGradient x1="84.3432" gradientUnits="userSpaceOnUse" x2="233.3432" y1="-300" y2="-225" id="linearGradient6" spreadMethod="reflect">
        <stop stop-opacity="1" stop-color="rgb(232,238,247)" offset="0%"/>
        <stop stop-opacity="1" stop-color="rgb(183,201,227)" offset="100%"/>
      </linearGradient>
      <linearGradient x1="84.3432" gradientUnits="userSpaceOnUse" x2="233.3432" y1="-178" y2="-95" id="linearGradient7" spreadMethod="reflect">
        <stop stop-opacity="1" stop-color="rgb(232,238,247)" offset="0%"/>
        <stop stop-opacity="1" stop-color="rgb(183,201,227)" offset="100%"/>
      </linearGradient>
      <linearGradient x1="84.3432" gradientUnits="userSpaceOnUse" x2="233.3432" y1="-37.0295" y2="45.9705" id="linearGradient8" spreadMethod="reflect">
        <stop stop-opacity="1" stop-color="rgb(232,238,247)" offset="0%"/>
        <stop stop-opacity="1" stop-color="rgb(183,201,227)" offset="100%"/>
      </linearGradient>
      <clipPath clipPathUnits="userSpaceOnUse" id="clipPath1">
        <path d="M0 0 L611 0 L611 689 L0 689 L0 0 Z"/>
      </clipPath>
      <clipPath clipPathUnits="userSpaceOnUse" id="clipPath2">
        <path d="M-362 -406 L249 -406 L249 283 L-362 283 L-362 -406 Z"/>
      </clipPath>
    </defs>
    <g fill="url(#linearGradient1)" text-rendering="geometricPrecision" shape-rendering="geometricPrecision" transform="matrix(1,0,0,1,362,406)" stroke="url(#linearGradient1)">
      <circle r="20" clip-path="url(#clipPath2)" cx="-187" cy="-371" stroke="none"/>
    </g>
    <g text-rendering="geometricPrecision" stroke-miterlimit="1.45" shape-rendering="geometricPrecision" transform="matrix(1,0,0,1,362,406)" stroke-linecap="butt">
      <circle fill="none" r="20" clip-path="url(#clipPath2)" cx="-187" cy="-371"/>
      <text x="-204.0303" xml:space="preserve" y="-366.8457" clip-path="url(#clipPath2)" font-family="sans-serif" stroke="none">Reset</text>
    </g>
    <g fill="url(#linearGradient2)" text-rendering="geometricPrecision" shape-rendering="geometricPrecision" transform="matrix(1,0,0,1,362,406)" stroke="url(#linearGradient2)">
      <path d="M-261.5 -304 L-112.5 -304 L-112.5 -221 L-261.5 -221 Z" stroke="none" clip-path="url(#clipPath2)"/>
    </g>
    <g text-rendering="geometricPrecision" stroke-miterlimit="1.45" shape-rendering="geometricPrecision" transform="matrix(1,0,0,1,362,406)" stroke-linecap="butt">
      <path fill="none" d="M-261.5 -304 L-112.5 -304 L-112.5 -221 L-261.5 -221 Z" clip-path="url(#clipPath2)"/>
      <text x="-225.9766" xml:space="preserve" y="-258.3457" clip-path="url(#clipPath2)" font-family="sans-serif" stroke="none">Initialize HAL</text>
    </g>
    <g fill="url(#linearGradient3)" text-rendering="geometricPrecision" shape-rendering="geometricPrecision" transform="matrix(1,0,0,1,362,406)" stroke="url(#linearGradient3)">
      <path d="M-187 -174 L-101 -114 L-187 -54 L-273 -114 Z" stroke="none" clip-path="url(#clipPath2)"/>
    </g>
    <g text-rendering="geometricPrecision" stroke-miterlimit="1.45" shape-rendering="geometricPrecision" transform="matrix(1,0,0,1,362,406)" stroke-linecap="butt">
      <path fill="none" d="M-187 -174 L-101 -114 L-187 -54 L-273 -114 Z" clip-path="url(#clipPath2)"/>
      <text x="-248.2656" xml:space="preserve" y="-116.8301" clip-path="url(#clipPath2)" font-family="sans-serif" stroke="none">Check Reset source </text>
      <text x="-244.9111" xml:space="preserve" y="-102.8613" clip-path="url(#clipPath2)" font-family="sans-serif" stroke="none">(from backup RAM)</text>
    </g>
    <g fill="url(#linearGradient4)" text-rendering="geometricPrecision" shape-rendering="geometricPrecision" transform="matrix(1,0,0,1,362,406)" stroke="url(#linearGradient4)">
      <path d="M-261.5 -7 L-112.5 -7 L-112.5 76 L-261.5 76 Z" stroke="none" clip-path="url(#clipPath2)"/>
    </g>
    <g text-rendering="geometricPrecision" stroke-miterlimit="1.45" shape-rendering="geometricPrecision" transform="matrix(1,0,0,1,362,406)" stroke-linecap="butt">
      <path fill="none" d="M-261.5 -7 L-112.5 -7 L-112.5 76 L-261.5 76 Z" clip-path="url(#clipPath2)"/>
      <text x="-242.8486" xml:space="preserve" y="31.6699" clip-path="url(#clipPath2)" font-family="sans-serif" stroke="none">Start splashscreen</text>
      <text x="-217.1611" xml:space="preserve" y="45.6387" clip-path="url(#clipPath2)" font-family="sans-serif" stroke="none">animation</text>
    </g>
    <g fill="url(#linearGradient5)" text-rendering="geometricPrecision" shape-rendering="geometricPrecision" transform="matrix(1,0,0,1,362,406)" stroke="url(#linearGradient5)">
      <path d="M-261.5 123 L-112.5 123 L-112.5 206 L-261.5 206 Z" stroke="none" clip-path="url(#clipPath2)"/>
    </g>
    <g text-rendering="geometricPrecision" stroke-miterlimit="1.45" shape-rendering="geometricPrecision" transform="matrix(1,0,0,1,362,406)" stroke-linecap="butt">
      <path fill="none" d="M-261.5 123 L-112.5 123 L-112.5 206 L-261.5 206 Z" clip-path="url(#clipPath2)"/>
      <text x="-223.4512" xml:space="preserve" y="161.6699" clip-path="url(#clipPath2)" font-family="sans-serif" stroke="none">Show "Test"</text>
      <text x="-227.5557" xml:space="preserve" y="175.6387" clip-path="url(#clipPath2)" font-family="sans-serif" stroke="none">icon launcher</text>
    </g>
    <g fill="url(#linearGradient6)" text-rendering="geometricPrecision" shape-rendering="geometricPrecision" transform="matrix(1,0,0,1,362,406)" stroke="url(#linearGradient6)">
      <path d="M84.3432 -300 L233.3432 -300 L223.3432 -225 L94.3432 -225 Z" stroke="none" clip-path="url(#clipPath2)"/>
    </g>
    <g text-rendering="geometricPrecision" stroke-miterlimit="1.45" shape-rendering="geometricPrecision" transform="matrix(1,0,0,1,362,406)" stroke-linecap="butt">
      <path fill="none" d="M84.3432 -300 L233.3432 -300 L223.3432 -225 L94.3432 -225 Z" clip-path="url(#clipPath2)"/>
      <text x="118.1557" xml:space="preserve" y="-265.3301" clip-path="url(#clipPath2)" font-family="sans-serif" stroke="none">Wait for user </text>
      <text x="123.1596" xml:space="preserve" y="-251.3613" clip-path="url(#clipPath2)" font-family="sans-serif" stroke="none">to click icon</text>
    </g>
    <g fill="url(#linearGradient7)" text-rendering="geometricPrecision" shape-rendering="geometricPrecision" transform="matrix(1,0,0,1,362,406)" stroke="url(#linearGradient7)">
      <path d="M84.3432 -178 L233.3432 -178 L233.3432 -95 L84.3432 -95 Z" stroke="none" clip-path="url(#clipPath2)"/>
    </g>
    <g text-rendering="geometricPrecision" stroke-miterlimit="1.45" shape-rendering="geometricPrecision" transform="matrix(1,0,0,1,362,406)" stroke-linecap="butt">
      <path fill="none" d="M84.3432 -178 L233.3432 -178 L233.3432 -95 L84.3432 -95 Z" clip-path="url(#clipPath2)"/>
      <text x="111.3002" xml:space="preserve" y="-139.3301" clip-path="url(#clipPath2)" font-family="sans-serif" stroke="none">Switch to Tests </text>
      <text x="100.39" xml:space="preserve" y="-125.3613" clip-path="url(#clipPath2)" font-family="sans-serif" stroke="none">screen and run app</text>
    </g>
    <g fill="url(#linearGradient8)" text-rendering="geometricPrecision" shape-rendering="geometricPrecision" transform="matrix(1,0,0,1,362,406)" stroke="url(#linearGradient8)">
      <path d="M84.3432 -37.0295 L233.3432 -37.0295 L233.3432 45.9705 L84.3432 45.9705 Z" stroke="none" clip-path="url(#clipPath2)"/>
    </g>
    <g text-rendering="geometricPrecision" stroke-miterlimit="1.45" shape-rendering="geometricPrecision" transform="matrix(1,0,0,1,362,406)" stroke-linecap="butt">
      <path fill="none" d="M84.3432 -37.0295 L233.3432 -37.0295 L233.3432 45.9705 L84.3432 45.9705 Z" clip-path="url(#clipPath2)"/>
      <text x="114.9301" xml:space="preserve" y="-5.344" clip-path="url(#clipPath2)" font-family="sans-serif" stroke="none">At end of tests</text>
      <text x="113.685" xml:space="preserve" y="8.6248" clip-path="url(#clipPath2)" font-family="sans-serif" stroke="none">switch back to </text>
      <text x="121.8676" xml:space="preserve" y="22.5935" clip-path="url(#clipPath2)" font-family="sans-serif" stroke="none">main screen</text>
    </g>
    <g text-rendering="geometricPrecision" stroke-miterlimit="1.45" shape-rendering="geometricPrecision" transform="matrix(1,0,0,1,362,406)" stroke-linecap="butt">
      <path fill="none" d="M-187 -351.0006 L-187 -312.0279" clip-path="url(#clipPath2)"/>
    </g>
    <g text-rendering="geometricPrecision" stroke-miterlimit="1.45" shape-rendering="geometricPrecision" transform="matrix(1,0,0,1,362,406)" stroke-linecap="butt">
      <path d="M-187 -304.0279 L-182 -316.0279 L-187 -313.0279 L-192 -316.0279 Z" stroke="none" clip-path="url(#clipPath2)"/>
      <path fill="none" d="M-187 -220.9882 L-187 -181.998" clip-path="url(#clipPath2)"/>
      <path d="M-187 -173.998 L-182 -185.998 L-187 -182.998 L-192 -185.998 Z" clip-path="url(#clipPath2)" stroke="none"/>
      <path fill="none" d="M-187 -53.9982 L-187 -15.0267" clip-path="url(#clipPath2)"/>
      <path d="M-187 -7.0267 L-182 -19.0267 L-187 -16.0267 L-192 -19.0267 Z" clip-path="url(#clipPath2)" stroke="none"/>
      <text x="-246.3818" xml:space="preserve" y="-35.8613" clip-path="url(#clipPath2)" font-family="sans-serif" stroke="none">HW Reset</text>
      <path fill="none" d="M-187 75.997 L-187 95.3346 L-187 115.0227" clip-path="url(#clipPath2)"/>
      <path d="M-187 123.0227 L-182 111.0227 L-187 114.0227 L-192 111.0227 Z" clip-path="url(#clipPath2)" stroke="none"/>
      <path fill="none" d="M-273.0316 -114 L-330.3044 -114 L-330.3044 102.4932 L-268.8283 129.0935" clip-path="url(#clipPath2)"/>
      <path d="M-261.4861 132.2704 L-270.5138 122.9162 L-269.746 128.6964 L-274.4849 132.0939 Z" clip-path="url(#clipPath2)" stroke="none"/>
      <text x="-344.657" xml:space="preserve" y="-139.8457" clip-path="url(#clipPath2)" font-family="sans-serif" stroke="none">SW Reset</text>
      <path fill="none" d="M-187 206.0007 L-187 267.5849 L-1.0055 267.5849 L-1.0055 -380.0012 L158.8432 -380.0012 L158.8432 -307.9937" clip-path="url(#clipPath2)"/>
      <path d="M158.8432 -299.9937 L163.8432 -311.9937 L158.8432 -308.9937 L153.8432 -311.9937 Z" clip-path="url(#clipPath2)" stroke="none"/>
      <path fill="none" d="M158.8432 -225.0015 L158.8432 -186.0283" clip-path="url(#clipPath2)"/>
      <path d="M158.8432 -178.0283 L163.8432 -190.0283 L158.8432 -187.0283 L153.8432 -190.0283 Z" clip-path="url(#clipPath2)" stroke="none"/>
      <path fill="none" d="M158.8432 -95.028 L158.8432 -45.0682" clip-path="url(#clipPath2)"/>
      <path d="M158.8432 -37.0682 L163.8432 -49.0682 L158.8432 -46.0682 L153.8432 -49.0682 Z" clip-path="url(#clipPath2)" stroke="none"/>
      <path fill="none" d="M158.8432 45.9373 L158.8432 91.0394 L-68.1661 91.0394 L-109.5838 118.5579" clip-path="url(#clipPath2)"/>
      <path d="M-116.2471 122.9851 L-103.4851 120.5089 L-108.7509 118.0045 L-109.0191 112.1797 Z" clip-path="url(#clipPath2)" stroke="none"/>
    </g>
  </g>
</svg>
