<?xml version="1.0" encoding="UTF-8"?><svg xmlns="http://www.w3.org/2000/svg" xmlns:xlink="http://www.w3.org/1999/xlink" fill-opacity="1" color-rendering="auto" color-interpolation="auto" text-rendering="auto" stroke="black" stroke-linecap="square" width="893" stroke-miterlimit="10" shape-rendering="auto" stroke-opacity="1" fill="black" stroke-dasharray="none" font-weight="normal" stroke-width="1" height="1174" font-family="'Dialog'" font-style="normal" stroke-linejoin="miter" font-size="12px" stroke-dashoffset="0" image-rendering="auto">
  <!--Generated by ySVG 2.5-->
  <defs id="genericDefs"/>
  <g>
    <defs id="defs1">
      <linearGradient x1="-227" gradientUnits="userSpaceOnUse" x2="-147" y1="-391" y2="-351" id="linearGradient1" spreadMethod="reflect">
        <stop stop-opacity="1" stop-color="rgb(232,238,247)" offset="0%"/>
        <stop stop-opacity="1" stop-color="rgb(183,201,227)" offset="100%"/>
      </linearGradient>
      <linearGradient x1="-261.5" gradientUnits="userSpaceOnUse" x2="-112.5" y1="-304" y2="-221" id="linearGradient2" spreadMethod="reflect">
        <stop stop-opacity="1" stop-color="rgb(232,238,247)" offset="0%"/>
        <stop stop-opacity="1" stop-color="rgb(183,201,227)" offset="100%"/>
      </linearGradient>
      <linearGradient x1="-273" gradientUnits="userSpaceOnUse" x2="-101" y1="-174" y2="-54" id="linearGradient3" spreadMethod="reflect">
        <stop stop-opacity="1" stop-color="rgb(232,238,247)" offset="0%"/>
        <stop stop-opacity="1" stop-color="rgb(183,201,227)" offset="100%"/>
      </linearGradient>
      <linearGradient x1="-261.5" gradientUnits="userSpaceOnUse" x2="-112.5" y1="-7" y2="76" id="linearGradient4" spreadMethod="reflect">
        <stop stop-opacity="1" stop-color="rgb(232,238,247)" offset="0%"/>
        <stop stop-opacity="1" stop-color="rgb(183,201,227)" offset="100%"/>
      </linearGradient>
      <linearGradient x1="-273" gradientUnits="userSpaceOnUse" x2="-101" y1="123" y2="243" id="linearGradient5" spreadMethod="reflect">
        <stop stop-opacity="1" stop-color="rgb(232,238,247)" offset="0%"/>
        <stop stop-opacity="1" stop-color="rgb(183,201,227)" offset="100%"/>
      </linearGradient>
      <linearGradient x1="157.5" gradientUnits="userSpaceOnUse" x2="237.5" y1="712.1562" y2="752.1562" id="linearGradient6" spreadMethod="reflect">
        <stop stop-opacity="1" stop-color="rgb(232,238,247)" offset="0%"/>
        <stop stop-opacity="1" stop-color="rgb(183,201,227)" offset="100%"/>
      </linearGradient>
      <linearGradient x1="123" gradientUnits="userSpaceOnUse" x2="272" y1="-304" y2="-221" id="linearGradient7" spreadMethod="reflect">
        <stop stop-opacity="1" stop-color="rgb(232,238,247)" offset="0%"/>
        <stop stop-opacity="1" stop-color="rgb(183,201,227)" offset="100%"/>
      </linearGradient>
      <linearGradient x1="123" gradientUnits="userSpaceOnUse" x2="272" y1="-168.75" y2="-93.75" id="linearGradient8" spreadMethod="reflect">
        <stop stop-opacity="1" stop-color="rgb(232,238,247)" offset="0%"/>
        <stop stop-opacity="1" stop-color="rgb(183,201,227)" offset="100%"/>
      </linearGradient>
      <linearGradient x1="90" gradientUnits="userSpaceOnUse" x2="305" y1="-41.5" y2="41.5" id="linearGradient9" spreadMethod="reflect">
        <stop stop-opacity="1" stop-color="rgb(232,238,247)" offset="0%"/>
        <stop stop-opacity="1" stop-color="rgb(183,201,227)" offset="100%"/>
      </linearGradient>
      <linearGradient x1="123" gradientUnits="userSpaceOnUse" x2="272" y1="93.75" y2="176.75" id="linearGradient10" spreadMethod="reflect">
        <stop stop-opacity="1" stop-color="rgb(232,238,247)" offset="0%"/>
        <stop stop-opacity="1" stop-color="rgb(183,201,227)" offset="100%"/>
      </linearGradient>
      <linearGradient x1="123" gradientUnits="userSpaceOnUse" x2="272" y1="395.25" y2="478.25" id="linearGradient11" spreadMethod="reflect">
        <stop stop-opacity="1" stop-color="rgb(232,238,247)" offset="0%"/>
        <stop stop-opacity="1" stop-color="rgb(183,201,227)" offset="100%"/>
      </linearGradient>
      <linearGradient x1="123" gradientUnits="userSpaceOnUse" x2="272" y1="530.5" y2="613.5" id="linearGradient12" spreadMethod="reflect">
        <stop stop-opacity="1" stop-color="rgb(232,238,247)" offset="0%"/>
        <stop stop-opacity="1" stop-color="rgb(183,201,227)" offset="100%"/>
      </linearGradient>
      <linearGradient x1="111.5" gradientUnits="userSpaceOnUse" x2="283.5" y1="226" y2="346" id="linearGradient13" spreadMethod="reflect">
        <stop stop-opacity="1" stop-color="rgb(232,238,247)" offset="0%"/>
        <stop stop-opacity="1" stop-color="rgb(183,201,227)" offset="100%"/>
      </linearGradient>
      <linearGradient x1="380.5" gradientUnits="userSpaceOnUse" x2="529.5" y1="244.5" y2="327.5" id="linearGradient14" spreadMethod="reflect">
        <stop stop-opacity="1" stop-color="rgb(232,238,247)" offset="0%"/>
        <stop stop-opacity="1" stop-color="rgb(183,201,227)" offset="100%"/>
      </linearGradient>
      <linearGradient x1="380.5" gradientUnits="userSpaceOnUse" x2="529.5" y1="399.25" y2="474.25" id="linearGradient15" spreadMethod="reflect">
        <stop stop-opacity="1" stop-color="rgb(232,238,247)" offset="0%"/>
        <stop stop-opacity="1" stop-color="rgb(183,201,227)" offset="100%"/>
      </linearGradient>
      <clipPath clipPathUnits="userSpaceOnUse" id="clipPath1">
        <path d="M0 0 L893 0 L893 1174 L0 1174 L0 0 Z"/>
      </clipPath>
      <clipPath clipPathUnits="userSpaceOnUse" id="clipPath2">
        <path d="M-348 -406 L545 -406 L545 768 L-348 768 L-348 -406 Z"/>
      </clipPath>
    </defs>
    <g fill="url(#linearGradient1)" text-rendering="geometricPrecision" shape-rendering="geometricPrecision" transform="matrix(1,0,0,1,348,406)" stroke="url(#linearGradient1)">
      <circle r="20" clip-path="url(#clipPath2)" cx="-187" cy="-371" stroke="none"/>
    </g>
    <g text-rendering="geometricPrecision" stroke-miterlimit="1.45" shape-rendering="geometricPrecision" transform="matrix(1,0,0,1,348,406)" stroke-linecap="butt">
      <circle fill="none" r="20" clip-path="url(#clipPath2)" cx="-187" cy="-371"/>
      <text x="-204.0303" xml:space="preserve" y="-366.8457" clip-path="url(#clipPath2)" font-family="sans-serif" stroke="none">Reset</text>
    </g>
    <g fill="url(#linearGradient2)" text-rendering="geometricPrecision" shape-rendering="geometricPrecision" transform="matrix(1,0,0,1,348,406)" stroke="url(#linearGradient2)">
      <path d="M-261.5 -304 L-112.5 -304 L-112.5 -221 L-261.5 -221 Z" stroke="none" clip-path="url(#clipPath2)"/>
    </g>
    <g text-rendering="geometricPrecision" stroke-miterlimit="1.45" shape-rendering="geometricPrecision" transform="matrix(1,0,0,1,348,406)" stroke-linecap="butt">
      <path fill="none" d="M-261.5 -304 L-112.5 -304 L-112.5 -221 L-261.5 -221 Z" clip-path="url(#clipPath2)"/>
      <text x="-225.9766" xml:space="preserve" y="-258.3457" clip-path="url(#clipPath2)" font-family="sans-serif" stroke="none">Initialize HAL</text>
    </g>
    <g fill="url(#linearGradient3)" text-rendering="geometricPrecision" shape-rendering="geometricPrecision" transform="matrix(1,0,0,1,348,406)" stroke="url(#linearGradient3)">
      <path d="M-187 -174 L-101 -114 L-187 -54 L-273 -114 Z" stroke="none" clip-path="url(#clipPath2)"/>
    </g>
    <g text-rendering="geometricPrecision" stroke-miterlimit="1.45" shape-rendering="geometricPrecision" transform="matrix(1,0,0,1,348,406)" stroke-linecap="butt">
      <path fill="none" d="M-187 -174 L-101 -114 L-187 -54 L-273 -114 Z" clip-path="url(#clipPath2)"/>
      <text x="-248.2656" xml:space="preserve" y="-116.8301" clip-path="url(#clipPath2)" font-family="sans-serif" stroke="none">Check Reset source </text>
      <text x="-244.9111" xml:space="preserve" y="-102.8613" clip-path="url(#clipPath2)" font-family="sans-serif" stroke="none">(from backup RAM)</text>
    </g>
    <g fill="url(#linearGradient4)" text-rendering="geometricPrecision" shape-rendering="geometricPrecision" transform="matrix(1,0,0,1,348,406)" stroke="url(#linearGradient4)">
      <path d="M-261.5 -7 L-112.5 -7 L-112.5 76 L-261.5 76 Z" stroke="none" clip-path="url(#clipPath2)"/>
    </g>
    <g text-rendering="geometricPrecision" stroke-miterlimit="1.45" shape-rendering="geometricPrecision" transform="matrix(1,0,0,1,348,406)" stroke-linecap="butt">
      <path fill="none" d="M-261.5 -7 L-112.5 -7 L-112.5 76 L-261.5 76 Z" clip-path="url(#clipPath2)"/>
      <text x="-242.8486" xml:space="preserve" y="31.6699" clip-path="url(#clipPath2)" font-family="sans-serif" stroke="none">Start splashscreen</text>
      <text x="-217.1611" xml:space="preserve" y="45.6387" clip-path="url(#clipPath2)" font-family="sans-serif" stroke="none">animation</text>
    </g>
    <g fill="url(#linearGradient5)" text-rendering="geometricPrecision" shape-rendering="geometricPrecision" transform="matrix(1,0,0,1,348,406)" stroke="url(#linearGradient5)">
      <path d="M-187 123 L-101 183 L-187 243 L-273 183 Z" stroke="none" clip-path="url(#clipPath2)"/>
    </g>
    <g text-rendering="geometricPrecision" stroke-miterlimit="1.45" shape-rendering="geometricPrecision" transform="matrix(1,0,0,1,348,406)" stroke-linecap="butt">
      <path fill="none" d="M-187 123 L-101 183 L-187 243 L-273 183 Z" clip-path="url(#clipPath2)"/>
      <text x="-241.7031" xml:space="preserve" y="180.1699" clip-path="url(#clipPath2)" font-family="sans-serif" stroke="none">Check app header</text>
      <text x="-234.7363" xml:space="preserve" y="194.1387" clip-path="url(#clipPath2)" font-family="sans-serif" stroke="none">In external RAM</text>
    </g>
    <g fill="url(#linearGradient6)" text-rendering="geometricPrecision" shape-rendering="geometricPrecision" transform="matrix(1,0,0,1,348,406)" stroke="url(#linearGradient6)">
      <rect x="157.5" y="712.1562" clip-path="url(#clipPath2)" width="80" rx="20" ry="20" height="40" stroke="none"/>
    </g>
    <g text-rendering="geometricPrecision" stroke-miterlimit="1.45" shape-rendering="geometricPrecision" transform="matrix(1,0,0,1,348,406)" stroke-linecap="butt">
      <rect x="157.5" y="712.1562" clip-path="url(#clipPath2)" fill="none" width="80" rx="20" ry="20" height="40"/>
      <text x="186.0977" xml:space="preserve" y="736.3105" clip-path="url(#clipPath2)" font-family="sans-serif" stroke="none">End</text>
    </g>
    <g fill="url(#linearGradient7)" text-rendering="geometricPrecision" shape-rendering="geometricPrecision" transform="matrix(1,0,0,1,348,406)" stroke="url(#linearGradient7)">
      <path d="M123 -304 L272 -304 L272 -221 L123 -221 Z" stroke="none" clip-path="url(#clipPath2)"/>
    </g>
    <g text-rendering="geometricPrecision" stroke-miterlimit="1.45" shape-rendering="geometricPrecision" transform="matrix(1,0,0,1,348,406)" stroke-linecap="butt">
      <path fill="none" d="M123 -304 L272 -304 L272 -221 L123 -221 Z" clip-path="url(#clipPath2)"/>
      <text x="151.2871" xml:space="preserve" y="-265.3301" clip-path="url(#clipPath2)" font-family="sans-serif" stroke="none">Show launcher </text>
      <text x="185.0605" xml:space="preserve" y="-251.3613" clip-path="url(#clipPath2)" font-family="sans-serif" stroke="none">icon</text>
    </g>
    <g fill="url(#linearGradient8)" text-rendering="geometricPrecision" shape-rendering="geometricPrecision" transform="matrix(1,0,0,1,348,406)" stroke="url(#linearGradient8)">
      <path d="M123 -168.75 L272 -168.75 L262 -93.75 L133 -93.75 Z" stroke="none" clip-path="url(#clipPath2)"/>
    </g>
    <g text-rendering="geometricPrecision" stroke-miterlimit="1.45" shape-rendering="geometricPrecision" transform="matrix(1,0,0,1,348,406)" stroke-linecap="butt">
      <path fill="none" d="M123 -168.75 L272 -168.75 L262 -93.75 L133 -93.75 Z" clip-path="url(#clipPath2)"/>
      <text x="156.8125" xml:space="preserve" y="-134.0801" clip-path="url(#clipPath2)" font-family="sans-serif" stroke="none">Wait for user </text>
      <text x="161.8164" xml:space="preserve" y="-120.1113" clip-path="url(#clipPath2)" font-family="sans-serif" stroke="none">to click icon</text>
    </g>
    <g fill="url(#linearGradient9)" text-rendering="geometricPrecision" shape-rendering="geometricPrecision" transform="matrix(1,0,0,1,348,406)" stroke="url(#linearGradient9)">
      <path d="M90 -41.5 L305 -41.5 L305 41.5 L90 41.5 Z" stroke="none" clip-path="url(#clipPath2)"/>
    </g>
    <g text-rendering="geometricPrecision" stroke-miterlimit="1.45" shape-rendering="geometricPrecision" transform="matrix(1,0,0,1,348,406)" stroke-linecap="butt">
      <path fill="none" d="M90 -41.5 L305 -41.5 L305 41.5 L90 41.5 Z" clip-path="url(#clipPath2)"/>
      <text x="173.3916" xml:space="preserve" y="-16.7988" clip-path="url(#clipPath2)" font-family="sans-serif" stroke="none">Stop ITs</text>
      <text x="114.0098" xml:space="preserve" y="-2.8301" clip-path="url(#clipPath2)" font-family="sans-serif" stroke="none">Switch Vector table to IRAM</text>
      <text x="134.2363" xml:space="preserve" y="11.1387" clip-path="url(#clipPath2)" font-family="sans-serif" stroke="none">DeInit periph except </text>
      <text x="120.8359" xml:space="preserve" y="25.1074" clip-path="url(#clipPath2)" font-family="sans-serif" stroke="none">external RAM and display</text>
    </g>
    <g fill="url(#linearGradient10)" text-rendering="geometricPrecision" shape-rendering="geometricPrecision" transform="matrix(1,0,0,1,348,406)" stroke="url(#linearGradient10)">
      <path d="M123 93.75 L272 93.75 L272 176.75 L123 176.75 Z" stroke="none" clip-path="url(#clipPath2)"/>
    </g>
    <g text-rendering="geometricPrecision" stroke-miterlimit="1.45" shape-rendering="geometricPrecision" transform="matrix(1,0,0,1,348,406)" stroke-linecap="butt">
      <path fill="none" d="M123 93.75 L272 93.75 L272 176.75 L123 176.75 Z" clip-path="url(#clipPath2)"/>
      <text x="161.1426" xml:space="preserve" y="132.4199" clip-path="url(#clipPath2)" font-family="sans-serif" stroke="none">Jump to app</text>
      <text x="164.4268" xml:space="preserve" y="146.3887" clip-path="url(#clipPath2)" font-family="sans-serif" stroke="none">entry point</text>
    </g>
    <g fill="url(#linearGradient11)" text-rendering="geometricPrecision" shape-rendering="geometricPrecision" transform="matrix(1,0,0,1,348,406)" stroke="url(#linearGradient11)">
      <path d="M123 395.25 L272 395.25 L272 478.25 L123 478.25 Z" stroke="none" clip-path="url(#clipPath2)"/>
    </g>
    <g text-rendering="geometricPrecision" stroke-miterlimit="1.45" shape-rendering="geometricPrecision" transform="matrix(1,0,0,1,348,406)" stroke-linecap="butt">
      <path fill="none" d="M123 395.25 L272 395.25 L272 478.25 L123 478.25 Z" clip-path="url(#clipPath2)"/>
      <text x="144.6426" xml:space="preserve" y="433.9199" clip-path="url(#clipPath2)" font-family="sans-serif" stroke="none">Store return code</text>
      <text x="152.8955" xml:space="preserve" y="447.8887" clip-path="url(#clipPath2)" font-family="sans-serif" stroke="none">in backup RAM</text>
    </g>
    <g fill="url(#linearGradient12)" text-rendering="geometricPrecision" shape-rendering="geometricPrecision" transform="matrix(1,0,0,1,348,406)" stroke="url(#linearGradient12)">
      <path d="M123 530.5 L272 530.5 L272 613.5 L123 613.5 Z" stroke="none" clip-path="url(#clipPath2)"/>
    </g>
    <g text-rendering="geometricPrecision" stroke-miterlimit="1.45" shape-rendering="geometricPrecision" transform="matrix(1,0,0,1,348,406)" stroke-linecap="butt">
      <path fill="none" d="M123 530.5 L272 530.5 L272 613.5 L123 613.5 Z" clip-path="url(#clipPath2)"/>
      <text x="128.96" xml:space="preserve" y="562.1855" clip-path="url(#clipPath2)" font-family="sans-serif" stroke="none">Store SW Reset source</text>
      <text x="152.8955" xml:space="preserve" y="576.1543" clip-path="url(#clipPath2)" font-family="sans-serif" stroke="none">in backup RAM</text>
      <text x="138.8916" xml:space="preserve" y="590.123" clip-path="url(#clipPath2)" font-family="sans-serif" stroke="none">Generate SW Reset</text>
    </g>
    <g fill="url(#linearGradient13)" text-rendering="geometricPrecision" shape-rendering="geometricPrecision" transform="matrix(1,0,0,1,348,406)" stroke="url(#linearGradient13)">
      <path d="M197.5 226 L283.5 286 L197.5 346 L111.5 286 Z" stroke="none" clip-path="url(#clipPath2)"/>
    </g>
    <g text-rendering="geometricPrecision" stroke-miterlimit="1.45" shape-rendering="geometricPrecision" transform="matrix(1,0,0,1,348,406)" stroke-linecap="butt">
      <path fill="none" d="M197.5 226 L283.5 286 L197.5 346 L111.5 286 Z" clip-path="url(#clipPath2)"/>
      <text x="165.1914" xml:space="preserve" y="283.1699" clip-path="url(#clipPath2)" font-family="sans-serif" stroke="none">Execusion </text>
      <text x="161.3564" xml:space="preserve" y="297.1387" clip-path="url(#clipPath2)" font-family="sans-serif" stroke="none">successful ?</text>
    </g>
    <g fill="url(#linearGradient14)" text-rendering="geometricPrecision" shape-rendering="geometricPrecision" transform="matrix(1,0,0,1,348,406)" stroke="url(#linearGradient14)">
      <path d="M380.5 244.5 L529.5 244.5 L529.5 327.5 L380.5 327.5 Z" stroke="none" clip-path="url(#clipPath2)"/>
    </g>
    <g text-rendering="geometricPrecision" stroke-miterlimit="1.45" shape-rendering="geometricPrecision" transform="matrix(1,0,0,1,348,406)" stroke-linecap="butt">
      <path fill="none" d="M380.5 244.5 L529.5 244.5 L529.5 327.5 L380.5 327.5 Z" clip-path="url(#clipPath2)"/>
      <text x="407.4541" xml:space="preserve" y="283.1699" clip-path="url(#clipPath2)" font-family="sans-serif" stroke="none">Show error msg</text>
      <text x="400.7656" xml:space="preserve" y="297.1387" clip-path="url(#clipPath2)" font-family="sans-serif" stroke="none">Wipe backup RAM</text>
    </g>
    <g fill="url(#linearGradient15)" text-rendering="geometricPrecision" shape-rendering="geometricPrecision" transform="matrix(1,0,0,1,348,406)" stroke="url(#linearGradient15)">
      <path d="M380.5 399.25 L529.5 399.25 L519.5 474.25 L390.5 474.25 Z" stroke="none" clip-path="url(#clipPath2)"/>
    </g>
    <g text-rendering="geometricPrecision" stroke-miterlimit="1.45" shape-rendering="geometricPrecision" transform="matrix(1,0,0,1,348,406)" stroke-linecap="butt">
      <path fill="none" d="M380.5 399.25 L529.5 399.25 L519.5 474.25 L390.5 474.25 Z" clip-path="url(#clipPath2)"/>
      <text x="390.374" xml:space="preserve" y="433.9199" clip-path="url(#clipPath2)" font-family="sans-serif" stroke="none">Wait for reset button </text>
      <text x="413.9434" xml:space="preserve" y="447.8887" clip-path="url(#clipPath2)" font-family="sans-serif" stroke="none">to be pressed</text>
    </g>
    <g text-rendering="geometricPrecision" stroke-miterlimit="1.45" shape-rendering="geometricPrecision" transform="matrix(1,0,0,1,348,406)" stroke-linecap="butt">
      <path fill="none" d="M-187 -351.0006 L-187 -312.0279" clip-path="url(#clipPath2)"/>
    </g>
    <g text-rendering="geometricPrecision" stroke-miterlimit="1.45" shape-rendering="geometricPrecision" transform="matrix(1,0,0,1,348,406)" stroke-linecap="butt">
      <path d="M-187 -304.0279 L-182 -316.0279 L-187 -313.0279 L-192 -316.0279 Z" stroke="none" clip-path="url(#clipPath2)"/>
      <path fill="none" d="M-187 -220.9882 L-187 -181.998" clip-path="url(#clipPath2)"/>
      <path d="M-187 -173.998 L-182 -185.998 L-187 -182.998 L-192 -185.998 Z" clip-path="url(#clipPath2)" stroke="none"/>
      <path fill="none" d="M-187 -53.9982 L-187 -15.0267" clip-path="url(#clipPath2)"/>
      <path d="M-187 -7.0267 L-182 -19.0267 L-187 -16.0267 L-192 -19.0267 Z" clip-path="url(#clipPath2)" stroke="none"/>
      <text x="-246.3818" xml:space="preserve" y="-35.8613" clip-path="url(#clipPath2)" font-family="sans-serif" stroke="none">HW Reset</text>
      <path fill="none" d="M-187 76.0118 L-187 115.002" clip-path="url(#clipPath2)"/>
      <path d="M-187 123.002 L-182 111.002 L-187 114.002 L-192 111.002 Z" clip-path="url(#clipPath2)" stroke="none"/>
      <path fill="none" d="M-273.0255 -114 L-311.9948 -114 L-311.9948 99.0655 L-187 99.0655 L-187 115.01" clip-path="url(#clipPath2)"/>
      <path d="M-187 123.01 L-182 111.01 L-187 114.01 L-192 111.01 Z" clip-path="url(#clipPath2)" stroke="none"/>
      <text x="-330.9248" xml:space="preserve" y="-139.8457" clip-path="url(#clipPath2)" font-family="sans-serif" stroke="none">SW Reset</text>
      <path fill="none" d="M-187 242.9684 L-187 519.25 L159.8755 711.3228" clip-path="url(#clipPath2)"/>
      <path d="M166.8743 715.1981 L158.7982 705.0109 L159.0007 710.8383 L153.9541 713.7593 Z" clip-path="url(#clipPath2)" stroke="none"/>
      <text x="-225.1592" xml:space="preserve" y="261.1387" clip-path="url(#clipPath2)" font-family="sans-serif" stroke="none">No</text>
      <path fill="none" d="M-100.9591 183 L-16.5 183 L-16.5 -359.75 L197.5 -359.75 L197.5 -311.9547" clip-path="url(#clipPath2)"/>
      <path d="M197.5 -303.9547 L202.5 -315.9547 L197.5 -312.9547 L192.5 -315.9547 Z" clip-path="url(#clipPath2)" stroke="none"/>
      <text x="-56.9824" xml:space="preserve" y="157.1543" clip-path="url(#clipPath2)" font-family="sans-serif" stroke="none">Yes</text>
      <path fill="none" d="M197.5 -221.0037 L197.5 -176.7204" clip-path="url(#clipPath2)"/>
      <path d="M197.5 -168.7204 L202.5 -180.7204 L197.5 -177.7204 L192.5 -180.7204 Z" clip-path="url(#clipPath2)" stroke="none"/>
      <path fill="none" d="M197.5 -93.7271 L197.5 -49.509" clip-path="url(#clipPath2)"/>
      <path d="M197.5 -41.509 L202.5 -53.509 L197.5 -50.509 L192.5 -53.509 Z" clip-path="url(#clipPath2)" stroke="none"/>
      <path fill="none" d="M197.5 41.5062 L197.5 85.7336" clip-path="url(#clipPath2)"/>
      <path d="M197.5 93.7336 L202.5 81.7336 L197.5 84.7336 L192.5 81.7336 Z" clip-path="url(#clipPath2)" stroke="none"/>
      <path fill="none" d="M197.5 478.2562 L197.5 522.4836" clip-path="url(#clipPath2)"/>
      <path d="M197.5 530.4836 L202.5 518.4836 L197.5 521.4836 L192.5 518.4836 Z" clip-path="url(#clipPath2)" stroke="none"/>
      <path fill="none" d="M197.5 613.4858 L197.5 704.1364" clip-path="url(#clipPath2)"/>
      <path d="M197.5 712.1364 L202.5 700.1364 L197.5 703.1364 L192.5 700.1364 Z" clip-path="url(#clipPath2)" stroke="none"/>
      <path fill="none" d="M197.5 176.7283 L197.5 218.002" clip-path="url(#clipPath2)"/>
      <path d="M197.5 226.002 L202.5 214.002 L197.5 217.002 L192.5 214.002 Z" clip-path="url(#clipPath2)" stroke="none"/>
      <path fill="none" d="M197.5 346.0276 L197.5 387.2428" clip-path="url(#clipPath2)"/>
      <path d="M197.5 395.2428 L202.5 383.2428 L197.5 386.2428 L192.5 383.2428 Z" clip-path="url(#clipPath2)" stroke="none"/>
      <text x="157.0176" xml:space="preserve" y="364.1387" clip-path="url(#clipPath2)" font-family="sans-serif" stroke="none">Yes</text>
      <path fill="none" d="M283.4695 286 L372.4998 286" clip-path="url(#clipPath2)"/>
      <path d="M380.4998 286 L368.4998 281 L371.4998 286 L368.4998 291 Z" clip-path="url(#clipPath2)" stroke="none"/>
      <text x="290.5" xml:space="preserve" y="260.1543" clip-path="url(#clipPath2)" font-family="sans-serif" stroke="none">No</text>
      <path fill="none" d="M455 327.4783 L455 391.2679" clip-path="url(#clipPath2)"/>
      <path d="M455 399.2679 L460 387.2679 L455 390.2679 L450 387.2679 Z" clip-path="url(#clipPath2)" stroke="none"/>
      <path fill="none" d="M455 474.2757 L455 614.0342 L237.8076 713.6661" clip-path="url(#clipPath2)"/>
      <path d="M230.5362 717.0017 L243.5281 716.5429 L238.7166 713.2491 L239.3586 707.4536 Z" clip-path="url(#clipPath2)" stroke="none"/>
    </g>
  </g>
</svg>
