<?xml version="1.0" encoding="UTF-8"?><svg xmlns="http://www.w3.org/2000/svg" xmlns:xlink="http://www.w3.org/1999/xlink" fill-opacity="1" color-rendering="auto" color-interpolation="auto" text-rendering="auto" stroke="black" stroke-linecap="square" width="1245" stroke-miterlimit="10" shape-rendering="auto" stroke-opacity="1" fill="black" stroke-dasharray="none" font-weight="normal" stroke-width="1" height="1025" font-family="'Dialog'" font-style="normal" stroke-linejoin="miter" font-size="12px" stroke-dashoffset="0" image-rendering="auto">
  <!--Generated by ySVG 2.5-->
  <defs id="genericDefs"/>
  <g>
    <defs id="defs1">
      <linearGradient x1="-227" gradientUnits="userSpaceOnUse" x2="-147" y1="-391" y2="-351" id="linearGradient1" spreadMethod="reflect">
        <stop stop-opacity="1" stop-color="rgb(232,238,247)" offset="0%"/>
        <stop stop-opacity="1" stop-color="rgb(183,201,227)" offset="100%"/>
      </linearGradient>
      <linearGradient x1="-261.5" gradientUnits="userSpaceOnUse" x2="-112.5" y1="-304" y2="-221" id="linearGradient2" spreadMethod="reflect">
        <stop stop-opacity="1" stop-color="rgb(232,238,247)" offset="0%"/>
        <stop stop-opacity="1" stop-color="rgb(183,201,227)" offset="100%"/>
      </linearGradient>
      <linearGradient x1="-273" gradientUnits="userSpaceOnUse" x2="-101" y1="-174" y2="-54" id="linearGradient3" spreadMethod="reflect">
        <stop stop-opacity="1" stop-color="rgb(232,238,247)" offset="0%"/>
        <stop stop-opacity="1" stop-color="rgb(183,201,227)" offset="100%"/>
      </linearGradient>
      <linearGradient x1="-261.5" gradientUnits="userSpaceOnUse" x2="-112.5" y1="-7" y2="76" id="linearGradient4" spreadMethod="reflect">
        <stop stop-opacity="1" stop-color="rgb(232,238,247)" offset="0%"/>
        <stop stop-opacity="1" stop-color="rgb(183,201,227)" offset="100%"/>
      </linearGradient>
      <linearGradient x1="-273" gradientUnits="userSpaceOnUse" x2="-101" y1="123" y2="243" id="linearGradient5" spreadMethod="reflect">
        <stop stop-opacity="1" stop-color="rgb(232,238,247)" offset="0%"/>
        <stop stop-opacity="1" stop-color="rgb(183,201,227)" offset="100%"/>
      </linearGradient>
      <linearGradient x1="123.3438" gradientUnits="userSpaceOnUse" x2="203.3438" y1="563.5625" y2="603.5625" id="linearGradient6" spreadMethod="reflect">
        <stop stop-opacity="1" stop-color="rgb(232,238,247)" offset="0%"/>
        <stop stop-opacity="1" stop-color="rgb(183,201,227)" offset="100%"/>
      </linearGradient>
      <linearGradient x1="88.8438" gradientUnits="userSpaceOnUse" x2="237.8438" y1="-155.5" y2="-72.5" id="linearGradient7" spreadMethod="reflect">
        <stop stop-opacity="1" stop-color="rgb(232,238,247)" offset="0%"/>
        <stop stop-opacity="1" stop-color="rgb(183,201,227)" offset="100%"/>
      </linearGradient>
      <linearGradient x1="88.8438" gradientUnits="userSpaceOnUse" x2="237.8438" y1="-20.25" y2="54.75" id="linearGradient8" spreadMethod="reflect">
        <stop stop-opacity="1" stop-color="rgb(232,238,247)" offset="0%"/>
        <stop stop-opacity="1" stop-color="rgb(183,201,227)" offset="100%"/>
      </linearGradient>
      <linearGradient x1="394.6875" gradientUnits="userSpaceOnUse" x2="609.6875" y1="-304" y2="-221" id="linearGradient9" spreadMethod="reflect">
        <stop stop-opacity="1" stop-color="rgb(232,238,247)" offset="0%"/>
        <stop stop-opacity="1" stop-color="rgb(183,201,227)" offset="100%"/>
      </linearGradient>
      <linearGradient x1="427.6875" gradientUnits="userSpaceOnUse" x2="576.6875" y1="-168.75" y2="-85.75" id="linearGradient10" spreadMethod="reflect">
        <stop stop-opacity="1" stop-color="rgb(232,238,247)" offset="0%"/>
        <stop stop-opacity="1" stop-color="rgb(183,201,227)" offset="100%"/>
      </linearGradient>
      <linearGradient x1="427.6875" gradientUnits="userSpaceOnUse" x2="576.6875" y1="153.375" y2="236.375" id="linearGradient11" spreadMethod="reflect">
        <stop stop-opacity="1" stop-color="rgb(232,238,247)" offset="0%"/>
        <stop stop-opacity="1" stop-color="rgb(183,201,227)" offset="100%"/>
      </linearGradient>
      <linearGradient x1="427.6875" gradientUnits="userSpaceOnUse" x2="576.6875" y1="290" y2="373" id="linearGradient12" spreadMethod="reflect">
        <stop stop-opacity="1" stop-color="rgb(232,238,247)" offset="0%"/>
        <stop stop-opacity="1" stop-color="rgb(183,201,227)" offset="100%"/>
      </linearGradient>
      <linearGradient x1="77.3438" gradientUnits="userSpaceOnUse" x2="249.3438" y1="-322.5" y2="-202.5" id="linearGradient13" spreadMethod="reflect">
        <stop stop-opacity="1" stop-color="rgb(232,238,247)" offset="0%"/>
        <stop stop-opacity="1" stop-color="rgb(183,201,227)" offset="100%"/>
      </linearGradient>
      <linearGradient x1="55.8438" gradientUnits="userSpaceOnUse" x2="270.8438" y1="107" y2="190" id="linearGradient14" spreadMethod="reflect">
        <stop stop-opacity="1" stop-color="rgb(232,238,247)" offset="0%"/>
        <stop stop-opacity="1" stop-color="rgb(183,201,227)" offset="100%"/>
      </linearGradient>
      <linearGradient x1="77.3438" gradientUnits="userSpaceOnUse" x2="249.3438" y1="242.25" y2="362.25" id="linearGradient15" spreadMethod="reflect">
        <stop stop-opacity="1" stop-color="rgb(232,238,247)" offset="0%"/>
        <stop stop-opacity="1" stop-color="rgb(183,201,227)" offset="100%"/>
      </linearGradient>
      <linearGradient x1="-261.5" gradientUnits="userSpaceOnUse" x2="-112.5" y1="290" y2="373" id="linearGradient16" spreadMethod="reflect">
        <stop stop-opacity="1" stop-color="rgb(232,238,247)" offset="0%"/>
        <stop stop-opacity="1" stop-color="rgb(183,201,227)" offset="100%"/>
      </linearGradient>
      <linearGradient x1="88.8438" gradientUnits="userSpaceOnUse" x2="237.8438" y1="392.25" y2="475.25" id="linearGradient17" spreadMethod="reflect">
        <stop stop-opacity="1" stop-color="rgb(232,238,247)" offset="0%"/>
        <stop stop-opacity="1" stop-color="rgb(183,201,227)" offset="100%"/>
      </linearGradient>
      <linearGradient x1="416.1875" gradientUnits="userSpaceOnUse" x2="588.1875" y1="-20.25" y2="99.75" id="linearGradient18" spreadMethod="reflect">
        <stop stop-opacity="1" stop-color="rgb(232,238,247)" offset="0%"/>
        <stop stop-opacity="1" stop-color="rgb(183,201,227)" offset="100%"/>
      </linearGradient>
      <linearGradient x1="704.9375" gradientUnits="userSpaceOnUse" x2="853.9375" y1="153.375" y2="236.375" id="linearGradient19" spreadMethod="reflect">
        <stop stop-opacity="1" stop-color="rgb(232,238,247)" offset="0%"/>
        <stop stop-opacity="1" stop-color="rgb(183,201,227)" offset="100%"/>
      </linearGradient>
      <linearGradient x1="704.9375" gradientUnits="userSpaceOnUse" x2="853.9375" y1="298" y2="373" id="linearGradient20" spreadMethod="reflect">
        <stop stop-opacity="1" stop-color="rgb(232,238,247)" offset="0%"/>
        <stop stop-opacity="1" stop-color="rgb(183,201,227)" offset="100%"/>
      </linearGradient>
      <clipPath clipPathUnits="userSpaceOnUse" id="clipPath1">
        <path d="M0 0 L1245 0 L1245 1025 L0 1025 L0 0 Z"/>
      </clipPath>
      <clipPath clipPathUnits="userSpaceOnUse" id="clipPath2">
        <path d="M-376 -406 L869 -406 L869 619 L-376 619 L-376 -406 Z"/>
      </clipPath>
    </defs>
    <g fill="url(#linearGradient1)" text-rendering="geometricPrecision" shape-rendering="geometricPrecision" transform="matrix(1,0,0,1,376,406)" stroke="url(#linearGradient1)">
      <circle r="20" clip-path="url(#clipPath2)" cx="-187" cy="-371" stroke="none"/>
    </g>
    <g text-rendering="geometricPrecision" stroke-miterlimit="1.45" shape-rendering="geometricPrecision" transform="matrix(1,0,0,1,376,406)" stroke-linecap="butt">
      <circle fill="none" r="20" clip-path="url(#clipPath2)" cx="-187" cy="-371"/>
      <text x="-204.0303" xml:space="preserve" y="-366.8457" clip-path="url(#clipPath2)" font-family="sans-serif" stroke="none">Reset</text>
    </g>
    <g fill="url(#linearGradient2)" text-rendering="geometricPrecision" shape-rendering="geometricPrecision" transform="matrix(1,0,0,1,376,406)" stroke="url(#linearGradient2)">
      <path d="M-261.5 -304 L-112.5 -304 L-112.5 -221 L-261.5 -221 Z" stroke="none" clip-path="url(#clipPath2)"/>
    </g>
    <g text-rendering="geometricPrecision" stroke-miterlimit="1.45" shape-rendering="geometricPrecision" transform="matrix(1,0,0,1,376,406)" stroke-linecap="butt">
      <path fill="none" d="M-261.5 -304 L-112.5 -304 L-112.5 -221 L-261.5 -221 Z" clip-path="url(#clipPath2)"/>
      <text x="-225.9766" xml:space="preserve" y="-258.3457" clip-path="url(#clipPath2)" font-family="sans-serif" stroke="none">Initialize HAL</text>
    </g>
    <g fill="url(#linearGradient3)" text-rendering="geometricPrecision" shape-rendering="geometricPrecision" transform="matrix(1,0,0,1,376,406)" stroke="url(#linearGradient3)">
      <path d="M-187 -174 L-101 -114 L-187 -54 L-273 -114 Z" stroke="none" clip-path="url(#clipPath2)"/>
    </g>
    <g text-rendering="geometricPrecision" stroke-miterlimit="1.45" shape-rendering="geometricPrecision" transform="matrix(1,0,0,1,376,406)" stroke-linecap="butt">
      <path fill="none" d="M-187 -174 L-101 -114 L-187 -54 L-273 -114 Z" clip-path="url(#clipPath2)"/>
      <text x="-248.2656" xml:space="preserve" y="-116.8301" clip-path="url(#clipPath2)" font-family="sans-serif" stroke="none">Check Reset source </text>
      <text x="-244.9111" xml:space="preserve" y="-102.8613" clip-path="url(#clipPath2)" font-family="sans-serif" stroke="none">(from backup RAM)</text>
    </g>
    <g fill="url(#linearGradient4)" text-rendering="geometricPrecision" shape-rendering="geometricPrecision" transform="matrix(1,0,0,1,376,406)" stroke="url(#linearGradient4)">
      <path d="M-261.5 -7 L-112.5 -7 L-112.5 76 L-261.5 76 Z" stroke="none" clip-path="url(#clipPath2)"/>
    </g>
    <g text-rendering="geometricPrecision" stroke-miterlimit="1.45" shape-rendering="geometricPrecision" transform="matrix(1,0,0,1,376,406)" stroke-linecap="butt">
      <path fill="none" d="M-261.5 -7 L-112.5 -7 L-112.5 76 L-261.5 76 Z" clip-path="url(#clipPath2)"/>
      <text x="-242.8486" xml:space="preserve" y="31.6699" clip-path="url(#clipPath2)" font-family="sans-serif" stroke="none">Start splashscreen</text>
      <text x="-217.1611" xml:space="preserve" y="45.6387" clip-path="url(#clipPath2)" font-family="sans-serif" stroke="none">animation</text>
    </g>
    <g fill="url(#linearGradient5)" text-rendering="geometricPrecision" shape-rendering="geometricPrecision" transform="matrix(1,0,0,1,376,406)" stroke="url(#linearGradient5)">
      <path d="M-187 123 L-101 183 L-187 243 L-273 183 Z" stroke="none" clip-path="url(#clipPath2)"/>
    </g>
    <g text-rendering="geometricPrecision" stroke-miterlimit="1.45" shape-rendering="geometricPrecision" transform="matrix(1,0,0,1,376,406)" stroke-linecap="butt">
      <path fill="none" d="M-187 123 L-101 183 L-187 243 L-273 183 Z" clip-path="url(#clipPath2)"/>
      <text x="-238.5449" xml:space="preserve" y="180.1699" clip-path="url(#clipPath2)" font-family="sans-serif" stroke="none">Check if SD card </text>
      <text x="-216.6396" xml:space="preserve" y="194.1387" clip-path="url(#clipPath2)" font-family="sans-serif" stroke="none">is present</text>
    </g>
    <g fill="url(#linearGradient6)" text-rendering="geometricPrecision" shape-rendering="geometricPrecision" transform="matrix(1,0,0,1,376,406)" stroke="url(#linearGradient6)">
      <rect x="123.3438" y="563.5625" clip-path="url(#clipPath2)" width="80" rx="20" ry="20" height="40" stroke="none"/>
    </g>
    <g text-rendering="geometricPrecision" stroke-miterlimit="1.45" shape-rendering="geometricPrecision" transform="matrix(1,0,0,1,376,406)" stroke-linecap="butt">
      <rect x="123.3438" y="563.5625" clip-path="url(#clipPath2)" fill="none" width="80" rx="20" ry="20" height="40"/>
      <text x="151.9414" xml:space="preserve" y="587.7168" clip-path="url(#clipPath2)" font-family="sans-serif" stroke="none">End</text>
    </g>
    <g fill="url(#linearGradient7)" text-rendering="geometricPrecision" shape-rendering="geometricPrecision" transform="matrix(1,0,0,1,376,406)" stroke="url(#linearGradient7)">
      <path d="M88.8438 -155.5 L237.8438 -155.5 L237.8438 -72.5 L88.8438 -72.5 Z" stroke="none" clip-path="url(#clipPath2)"/>
    </g>
    <g text-rendering="geometricPrecision" stroke-miterlimit="1.45" shape-rendering="geometricPrecision" transform="matrix(1,0,0,1,376,406)" stroke-linecap="butt">
      <path fill="none" d="M88.8438 -155.5 L237.8438 -155.5 L237.8438 -72.5 L88.8438 -72.5 Z" clip-path="url(#clipPath2)"/>
      <text x="119.3955" xml:space="preserve" y="-130.7988" clip-path="url(#clipPath2)" font-family="sans-serif" stroke="none">Load icon and </text>
      <text x="117.8135" xml:space="preserve" y="-116.8301" clip-path="url(#clipPath2)" font-family="sans-serif" stroke="none">show launcher </text>
      <text x="109.2617" xml:space="preserve" y="-102.8613" clip-path="url(#clipPath2)" font-family="sans-serif" stroke="none">icon for each app </text>
      <text x="125.6094" xml:space="preserve" y="-88.8926" clip-path="url(#clipPath2)" font-family="sans-serif" stroke="none">in descriptor</text>
    </g>
    <g fill="url(#linearGradient8)" text-rendering="geometricPrecision" shape-rendering="geometricPrecision" transform="matrix(1,0,0,1,376,406)" stroke="url(#linearGradient8)">
      <path d="M88.8438 -20.25 L237.8438 -20.25 L227.8438 54.75 L98.8438 54.75 Z" stroke="none" clip-path="url(#clipPath2)"/>
    </g>
    <g text-rendering="geometricPrecision" stroke-miterlimit="1.45" shape-rendering="geometricPrecision" transform="matrix(1,0,0,1,376,406)" stroke-linecap="butt">
      <path fill="none" d="M88.8438 -20.25 L237.8438 -20.25 L227.8438 54.75 L98.8438 54.75 Z" clip-path="url(#clipPath2)"/>
      <text x="122.6562" xml:space="preserve" y="14.4199" clip-path="url(#clipPath2)" font-family="sans-serif" stroke="none">Wait for user </text>
      <text x="118.2734" xml:space="preserve" y="28.3887" clip-path="url(#clipPath2)" font-family="sans-serif" stroke="none">to click an icon</text>
    </g>
    <g fill="url(#linearGradient9)" text-rendering="geometricPrecision" shape-rendering="geometricPrecision" transform="matrix(1,0,0,1,376,406)" stroke="url(#linearGradient9)">
      <path d="M394.6875 -304 L609.6875 -304 L609.6875 -221 L394.6875 -221 Z" stroke="none" clip-path="url(#clipPath2)"/>
    </g>
    <g text-rendering="geometricPrecision" stroke-miterlimit="1.45" shape-rendering="geometricPrecision" transform="matrix(1,0,0,1,376,406)" stroke-linecap="butt">
      <path fill="none" d="M394.6875 -304 L609.6875 -304 L609.6875 -221 L394.6875 -221 Z" clip-path="url(#clipPath2)"/>
      <text x="478.0791" xml:space="preserve" y="-279.2988" clip-path="url(#clipPath2)" font-family="sans-serif" stroke="none">Stop ITs</text>
      <text x="418.6973" xml:space="preserve" y="-265.3301" clip-path="url(#clipPath2)" font-family="sans-serif" stroke="none">Switch Vector table to IRAM</text>
      <text x="438.9238" xml:space="preserve" y="-251.3613" clip-path="url(#clipPath2)" font-family="sans-serif" stroke="none">DeInit periph except </text>
      <text x="425.5234" xml:space="preserve" y="-237.3926" clip-path="url(#clipPath2)" font-family="sans-serif" stroke="none">external RAM and display</text>
    </g>
    <g fill="url(#linearGradient10)" text-rendering="geometricPrecision" shape-rendering="geometricPrecision" transform="matrix(1,0,0,1,376,406)" stroke="url(#linearGradient10)">
      <path d="M427.6875 -168.75 L576.6875 -168.75 L576.6875 -85.75 L427.6875 -85.75 Z" stroke="none" clip-path="url(#clipPath2)"/>
    </g>
    <g text-rendering="geometricPrecision" stroke-miterlimit="1.45" shape-rendering="geometricPrecision" transform="matrix(1,0,0,1,376,406)" stroke-linecap="butt">
      <path fill="none" d="M427.6875 -168.75 L576.6875 -168.75 L576.6875 -85.75 L427.6875 -85.75 Z" clip-path="url(#clipPath2)"/>
      <text x="465.8301" xml:space="preserve" y="-130.0801" clip-path="url(#clipPath2)" font-family="sans-serif" stroke="none">Jump to app</text>
      <text x="469.1143" xml:space="preserve" y="-116.1113" clip-path="url(#clipPath2)" font-family="sans-serif" stroke="none">entry point</text>
    </g>
    <g fill="url(#linearGradient11)" text-rendering="geometricPrecision" shape-rendering="geometricPrecision" transform="matrix(1,0,0,1,376,406)" stroke="url(#linearGradient11)">
      <path d="M427.6875 153.375 L576.6875 153.375 L576.6875 236.375 L427.6875 236.375 Z" stroke="none" clip-path="url(#clipPath2)"/>
    </g>
    <g text-rendering="geometricPrecision" stroke-miterlimit="1.45" shape-rendering="geometricPrecision" transform="matrix(1,0,0,1,376,406)" stroke-linecap="butt">
      <path fill="none" d="M427.6875 153.375 L576.6875 153.375 L576.6875 236.375 L427.6875 236.375 Z" clip-path="url(#clipPath2)"/>
      <text x="449.3301" xml:space="preserve" y="192.0449" clip-path="url(#clipPath2)" font-family="sans-serif" stroke="none">Store return code</text>
      <text x="457.583" xml:space="preserve" y="206.0137" clip-path="url(#clipPath2)" font-family="sans-serif" stroke="none">in backup RAM</text>
    </g>
    <g fill="url(#linearGradient12)" text-rendering="geometricPrecision" shape-rendering="geometricPrecision" transform="matrix(1,0,0,1,376,406)" stroke="url(#linearGradient12)">
      <path d="M427.6875 290 L576.6875 290 L576.6875 373 L427.6875 373 Z" stroke="none" clip-path="url(#clipPath2)"/>
    </g>
    <g text-rendering="geometricPrecision" stroke-miterlimit="1.45" shape-rendering="geometricPrecision" transform="matrix(1,0,0,1,376,406)" stroke-linecap="butt">
      <path fill="none" d="M427.6875 290 L576.6875 290 L576.6875 373 L427.6875 373 Z" clip-path="url(#clipPath2)"/>
      <text x="433.6475" xml:space="preserve" y="321.6855" clip-path="url(#clipPath2)" font-family="sans-serif" stroke="none">Store SW Reset source</text>
      <text x="457.583" xml:space="preserve" y="335.6543" clip-path="url(#clipPath2)" font-family="sans-serif" stroke="none">in backup RAM</text>
      <text x="443.5791" xml:space="preserve" y="349.623" clip-path="url(#clipPath2)" font-family="sans-serif" stroke="none">Generate SW Reset</text>
    </g>
    <g fill="url(#linearGradient13)" text-rendering="geometricPrecision" shape-rendering="geometricPrecision" transform="matrix(1,0,0,1,376,406)" stroke="url(#linearGradient13)">
      <path d="M163.3438 -322.5 L249.3438 -262.5 L163.3438 -202.5 L77.3438 -262.5 Z" stroke="none" clip-path="url(#clipPath2)"/>
    </g>
    <g text-rendering="geometricPrecision" stroke-miterlimit="1.45" shape-rendering="geometricPrecision" transform="matrix(1,0,0,1,376,406)" stroke-linecap="butt">
      <path fill="none" d="M163.3438 -322.5 L249.3438 -262.5 L163.3438 -202.5 L77.3438 -262.5 Z" clip-path="url(#clipPath2)"/>
      <text x="115.4316" xml:space="preserve" y="-265.3301" clip-path="url(#clipPath2)" font-family="sans-serif" stroke="none">Check if a valid </text>
      <text x="101.4395" xml:space="preserve" y="-251.3613" clip-path="url(#clipPath2)" font-family="sans-serif" stroke="none">descriptor is present</text>
    </g>
    <g fill="url(#linearGradient14)" text-rendering="geometricPrecision" shape-rendering="geometricPrecision" transform="matrix(1,0,0,1,376,406)" stroke="url(#linearGradient14)">
      <path d="M55.8438 107 L270.8438 107 L270.8438 190 L55.8438 190 Z" stroke="none" clip-path="url(#clipPath2)"/>
    </g>
    <g text-rendering="geometricPrecision" stroke-miterlimit="1.45" shape-rendering="geometricPrecision" transform="matrix(1,0,0,1,376,406)" stroke-linecap="butt">
      <path fill="none" d="M55.8438 107 L270.8438 107 L270.8438 190 L55.8438 190 Z" clip-path="url(#clipPath2)"/>
      <text x="86.1025" xml:space="preserve" y="145.6699" clip-path="url(#clipPath2)" font-family="sans-serif" stroke="none">Load app in external RAM</text>
      <text x="103.7363" xml:space="preserve" y="159.6387" clip-path="url(#clipPath2)" font-family="sans-serif" stroke="none">Compute checksum</text>
    </g>
    <g fill="url(#linearGradient15)" text-rendering="geometricPrecision" shape-rendering="geometricPrecision" transform="matrix(1,0,0,1,376,406)" stroke="url(#linearGradient15)">
      <path d="M163.3438 242.25 L249.3438 302.25 L163.3438 362.25 L77.3438 302.25 Z" stroke="none" clip-path="url(#clipPath2)"/>
    </g>
    <g text-rendering="geometricPrecision" stroke-miterlimit="1.45" shape-rendering="geometricPrecision" transform="matrix(1,0,0,1,376,406)" stroke-linecap="butt">
      <path fill="none" d="M163.3438 242.25 L249.3438 302.25 L163.3438 362.25 L77.3438 302.25 Z" clip-path="url(#clipPath2)"/>
      <text x="103.0566" xml:space="preserve" y="299.4199" clip-path="url(#clipPath2)" font-family="sans-serif" stroke="none">App really present ?</text>
      <text x="117.8076" xml:space="preserve" y="313.3887" clip-path="url(#clipPath2)" font-family="sans-serif" stroke="none">checksum Ok ?</text>
    </g>
    <g fill="url(#linearGradient16)" text-rendering="geometricPrecision" shape-rendering="geometricPrecision" transform="matrix(1,0,0,1,376,406)" stroke="url(#linearGradient16)">
      <path d="M-261.5 290 L-112.5 290 L-112.5 373 L-261.5 373 Z" stroke="none" clip-path="url(#clipPath2)"/>
    </g>
    <g text-rendering="geometricPrecision" stroke-miterlimit="1.45" shape-rendering="geometricPrecision" transform="matrix(1,0,0,1,376,406)" stroke-linecap="butt">
      <path fill="none" d="M-261.5 290 L-112.5 290 L-112.5 373 L-261.5 373 Z" clip-path="url(#clipPath2)"/>
      <text x="-228.6836" xml:space="preserve" y="328.6699" clip-path="url(#clipPath2)" font-family="sans-serif" stroke="none">Show SD card</text>
      <text x="-213.4111" xml:space="preserve" y="342.6387" clip-path="url(#clipPath2)" font-family="sans-serif" stroke="none">indicator</text>
    </g>
    <g fill="url(#linearGradient17)" text-rendering="geometricPrecision" shape-rendering="geometricPrecision" transform="matrix(1,0,0,1,376,406)" stroke="url(#linearGradient17)">
      <path d="M88.8438 392.25 L237.8438 392.25 L237.8438 475.25 L88.8438 475.25 Z" stroke="none" clip-path="url(#clipPath2)"/>
    </g>
    <g text-rendering="geometricPrecision" stroke-miterlimit="1.45" shape-rendering="geometricPrecision" transform="matrix(1,0,0,1,376,406)" stroke-linecap="butt">
      <path fill="none" d="M88.8438 392.25 L237.8438 392.25 L237.8438 475.25 L88.8438 475.25 Z" clip-path="url(#clipPath2)"/>
      <text x="111.6611" xml:space="preserve" y="437.9043" clip-path="url(#clipPath2)" font-family="sans-serif" stroke="none">Show popup msg</text>
    </g>
    <g fill="url(#linearGradient18)" text-rendering="geometricPrecision" shape-rendering="geometricPrecision" transform="matrix(1,0,0,1,376,406)" stroke="url(#linearGradient18)">
      <path d="M502.1875 -20.25 L588.1875 39.75 L502.1875 99.75 L416.1875 39.75 Z" stroke="none" clip-path="url(#clipPath2)"/>
    </g>
    <g text-rendering="geometricPrecision" stroke-miterlimit="1.45" shape-rendering="geometricPrecision" transform="matrix(1,0,0,1,376,406)" stroke-linecap="butt">
      <path fill="none" d="M502.1875 -20.25 L588.1875 39.75 L502.1875 99.75 L416.1875 39.75 Z" clip-path="url(#clipPath2)"/>
      <text x="470.6523" xml:space="preserve" y="36.9199" clip-path="url(#clipPath2)" font-family="sans-serif" stroke="none">Execution </text>
      <text x="466.0439" xml:space="preserve" y="50.8887" clip-path="url(#clipPath2)" font-family="sans-serif" stroke="none">successful ?</text>
    </g>
    <g fill="url(#linearGradient19)" text-rendering="geometricPrecision" shape-rendering="geometricPrecision" transform="matrix(1,0,0,1,376,406)" stroke="url(#linearGradient19)">
      <path d="M704.9375 153.375 L853.9375 153.375 L853.9375 236.375 L704.9375 236.375 Z" stroke="none" clip-path="url(#clipPath2)"/>
    </g>
    <g text-rendering="geometricPrecision" stroke-miterlimit="1.45" shape-rendering="geometricPrecision" transform="matrix(1,0,0,1,376,406)" stroke-linecap="butt">
      <path fill="none" d="M704.9375 153.375 L853.9375 153.375 L853.9375 236.375 L704.9375 236.375 Z" clip-path="url(#clipPath2)"/>
      <text x="717.7061" xml:space="preserve" y="199.0293" clip-path="url(#clipPath2)" font-family="sans-serif" stroke="none">Show error message</text>
    </g>
    <g fill="url(#linearGradient20)" text-rendering="geometricPrecision" shape-rendering="geometricPrecision" transform="matrix(1,0,0,1,376,406)" stroke="url(#linearGradient20)">
      <path d="M704.9375 298 L853.9375 298 L843.9375 373 L714.9375 373 Z" stroke="none" clip-path="url(#clipPath2)"/>
    </g>
    <g text-rendering="geometricPrecision" stroke-miterlimit="1.45" shape-rendering="geometricPrecision" transform="matrix(1,0,0,1,376,406)" stroke-linecap="butt">
      <path fill="none" d="M704.9375 298 L853.9375 298 L843.9375 373 L714.9375 373 Z" clip-path="url(#clipPath2)"/>
      <text x="738.416" xml:space="preserve" y="332.6699" clip-path="url(#clipPath2)" font-family="sans-serif" stroke="none">Wait for reset</text>
      <text x="734.0215" xml:space="preserve" y="346.6387" clip-path="url(#clipPath2)" font-family="sans-serif" stroke="none">button pressed</text>
    </g>
    <g text-rendering="geometricPrecision" stroke-miterlimit="1.45" shape-rendering="geometricPrecision" transform="matrix(1,0,0,1,376,406)" stroke-linecap="butt">
      <path fill="none" d="M-187 -351.0006 L-187 -312.0279" clip-path="url(#clipPath2)"/>
    </g>
    <g text-rendering="geometricPrecision" stroke-miterlimit="1.45" shape-rendering="geometricPrecision" transform="matrix(1,0,0,1,376,406)" stroke-linecap="butt">
      <path d="M-187 -304.0279 L-182 -316.0279 L-187 -313.0279 L-192 -316.0279 Z" stroke="none" clip-path="url(#clipPath2)"/>
      <path fill="none" d="M-187 -220.9882 L-187 -181.998" clip-path="url(#clipPath2)"/>
      <path d="M-187 -173.998 L-182 -185.998 L-187 -182.998 L-192 -185.998 Z" clip-path="url(#clipPath2)" stroke="none"/>
      <path fill="none" d="M-187 -53.9982 L-187 -15.0267" clip-path="url(#clipPath2)"/>
      <path d="M-187 -7.0267 L-182 -19.0267 L-187 -16.0267 L-192 -19.0267 Z" clip-path="url(#clipPath2)" stroke="none"/>
      <text x="-246.3818" xml:space="preserve" y="-26.3457" clip-path="url(#clipPath2)" font-family="sans-serif" stroke="none">HW Reset</text>
      <path fill="none" d="M-187 76.0118 L-187 115.002" clip-path="url(#clipPath2)"/>
      <path d="M-187 123.002 L-182 111.002 L-187 114.002 L-192 111.002 Z" clip-path="url(#clipPath2)" stroke="none"/>
      <path fill="none" d="M-273.0299 183 L-360.5 183 L-360.5 583.5625 L115.3457 583.5625" clip-path="url(#clipPath2)"/>
      <path d="M123.3457 583.5625 L111.3457 578.5625 L114.3457 583.5625 L111.3457 588.5625 Z" clip-path="url(#clipPath2)" stroke="none"/>
      <text x="-332.4888" xml:space="preserve" y="157.1543" clip-path="url(#clipPath2)" font-family="sans-serif" stroke="none">No</text>
      <path fill="none" d="M163.3438 -72.5037 L163.3438 -28.2204" clip-path="url(#clipPath2)"/>
      <path d="M163.3438 -20.2204 L168.3438 -32.2204 L163.3438 -29.2204 L158.3438 -32.2204 Z" clip-path="url(#clipPath2)" stroke="none"/>
      <path fill="none" d="M502.1875 -220.9938 L502.1875 -176.7664" clip-path="url(#clipPath2)"/>
      <path d="M502.1875 -168.7664 L507.1875 -180.7664 L502.1875 -177.7664 L497.1875 -180.7664 Z" clip-path="url(#clipPath2)" stroke="none"/>
      <path fill="none" d="M502.1875 236.4029 L502.1875 282.0343" clip-path="url(#clipPath2)"/>
      <path d="M502.1875 290.0343 L507.1875 278.0343 L502.1875 281.0343 L497.1875 278.0343 Z" clip-path="url(#clipPath2)" stroke="none"/>
      <path fill="none" d="M502.1875 373.0078 L502.1875 583.5625 L211.3415 583.5625" clip-path="url(#clipPath2)"/>
      <path d="M203.3415 583.5625 L215.3415 588.5625 L212.3415 583.5625 L215.3415 578.5625 Z" clip-path="url(#clipPath2)" stroke="none"/>
      <path fill="none" d="M163.3438 -202.4982 L163.3438 -163.5267" clip-path="url(#clipPath2)"/>
      <path d="M163.3438 -155.5267 L168.3438 -167.5267 L163.3438 -164.5267 L158.3438 -167.5267 Z" clip-path="url(#clipPath2)" stroke="none"/>
      <text x="122.8613" xml:space="preserve" y="-174.8457" clip-path="url(#clipPath2)" font-family="sans-serif" stroke="none">Yes</text>
      <path fill="none" d="M77.3424 -262.5 L-33.7808 -262.5 L-33.7808 508.5625 L-33.7808 523.0264 L-33.7808 523.0264 L-33.7808 532 L-33.7808 532 L115.9887 577.7629" clip-path="url(#clipPath2)"/>
      <path d="M123.6395 580.1006 L113.6244 571.8123 L115.0324 577.4707 L110.7022 581.3759 Z" clip-path="url(#clipPath2)" stroke="none"/>
      <text x="54.0254" xml:space="preserve" y="-288.3457" clip-path="url(#clipPath2)" font-family="sans-serif" stroke="none">No</text>
      <path fill="none" d="M163.3438 54.7729 L163.3438 98.991" clip-path="url(#clipPath2)"/>
      <path d="M163.3438 106.991 L168.3438 94.991 L163.3438 97.991 L158.3438 94.991 Z" clip-path="url(#clipPath2)" stroke="none"/>
      <path fill="none" d="M163.3438 189.978 L163.3438 234.2491" clip-path="url(#clipPath2)"/>
      <path d="M163.3438 242.2491 L168.3438 230.2491 L163.3438 233.2491 L158.3438 230.2491 Z" clip-path="url(#clipPath2)" stroke="none"/>
      <path fill="none" d="M249.339 302.25 L342.7817 302.25 L342.7817 -386.3486 L502.1875 -386.3486 L502.1875 -312.0147" clip-path="url(#clipPath2)"/>
      <path d="M502.1875 -304.0147 L507.1875 -316.0147 L502.1875 -313.0147 L497.1875 -316.0147 Z" clip-path="url(#clipPath2)" stroke="none"/>
      <text x="256.3438" xml:space="preserve" y="276.4043" clip-path="url(#clipPath2)" font-family="sans-serif" stroke="none">Yes</text>
      <path fill="none" d="M-187 243.0018 L-187 281.9733" clip-path="url(#clipPath2)"/>
      <path d="M-187 289.9733 L-182 277.9733 L-187 280.9733 L-192 277.9733 Z" clip-path="url(#clipPath2)" stroke="none"/>
      <text x="-227.4824" xml:space="preserve" y="270.6543" clip-path="url(#clipPath2)" font-family="sans-serif" stroke="none">Yes</text>
      <path fill="none" d="M-112.5261 331.5 L-65.0308 331.5 L-65.0308 -381.6611 L163.3438 -381.6611 L163.3438 -330.5169" clip-path="url(#clipPath2)"/>
      <path d="M163.3438 -322.5169 L168.3438 -334.5169 L163.3438 -331.5169 L158.3438 -334.5169 Z" clip-path="url(#clipPath2)" stroke="none"/>
      <path fill="none" d="M163.3438 362.2533 L163.3438 384.2414" clip-path="url(#clipPath2)"/>
      <path d="M163.3438 392.2414 L168.3438 380.2414 L163.3438 383.2414 L158.3438 380.2414 Z" clip-path="url(#clipPath2)" stroke="none"/>
      <text x="125.1846" xml:space="preserve" y="381.4043" clip-path="url(#clipPath2)" font-family="sans-serif" stroke="none">No</text>
      <path fill="none" d="M88.8411 433.75 L1.2817 433.75 L1.2817 17.25 L85.8264 17.25" clip-path="url(#clipPath2)"/>
      <path d="M93.8264 17.25 L81.8264 12.25 L84.8264 17.25 L81.8264 22.25 Z" clip-path="url(#clipPath2)" stroke="none"/>
      <path fill="none" d="M502.1875 -85.7854 L502.1875 -28.2287" clip-path="url(#clipPath2)"/>
      <path d="M502.1875 -20.2287 L507.1875 -32.2287 L502.1875 -29.2287 L497.1875 -32.2287 Z" clip-path="url(#clipPath2)" stroke="none"/>
      <path fill="none" d="M502.1875 99.7776 L502.1875 145.4092" clip-path="url(#clipPath2)"/>
      <path d="M502.1875 153.4092 L507.1875 141.4092 L502.1875 144.4092 L497.1875 141.4092 Z" clip-path="url(#clipPath2)" stroke="none"/>
      <text x="461.7051" xml:space="preserve" y="130.7168" clip-path="url(#clipPath2)" font-family="sans-serif" stroke="none">Yes</text>
      <path fill="none" d="M588.1851 39.75 L779.4375 39.75 L779.4375 145.4048" clip-path="url(#clipPath2)"/>
      <path d="M779.4375 153.4048 L784.4375 141.4048 L779.4375 144.4048 L774.4375 141.4048 Z" clip-path="url(#clipPath2)" stroke="none"/>
      <text x="595.1875" xml:space="preserve" y="13.9043" clip-path="url(#clipPath2)" font-family="sans-serif" stroke="none">No</text>
      <path fill="none" d="M779.4375 236.3827 L779.4375 289.9922" clip-path="url(#clipPath2)"/>
      <path d="M779.4375 297.9922 L784.4375 285.9922 L779.4375 288.9922 L774.4375 285.9922 Z" clip-path="url(#clipPath2)" stroke="none"/>
      <path fill="none" d="M779.4375 373.0182 L779.4375 583.5625 L502.1875 583.5625 L502.1875 583.5625 L502.1875 583.5625 L211.363 583.5625" clip-path="url(#clipPath2)"/>
      <path d="M203.363 583.5625 L215.363 588.5625 L212.363 583.5625 L215.363 578.5625 Z" clip-path="url(#clipPath2)" stroke="none"/>
    </g>
  </g>
</svg>
