M48
; DRILL file {KiCad 5.1.4-e60b266~84~ubuntu18.04.1} date Wed 18 Sep 2019 15:13:41 CEST
; FORMAT={-:-/ absolute / inch / decimal}
; #@! TF.CreationDate,2019-09-18T15:13:41+02:00
; #@! TF.GenerationSoftware,Kicad,Pcbnew,5.1.4-e60b266~84~ubuntu18.04.1
; #@! TF.FileFunction,Plated,1,2,PTH
FMAT,2
INCH
T1C0.0157
T2C0.0315
T3C0.0394
%
G90
G05
T1
X3.9Y-4.025
X3.95Y-3.725
X3.9553Y-3.5553
X4.05Y-3.65
X4.125Y-3.925
X4.125Y-3.975
X4.275Y-3.25
X4.275Y-4.3
X4.2756Y-3.4006
X4.325Y-2.7
X4.325Y-3.05
X4.35Y-3.45
X4.35Y-3.775
X4.425Y-3.425
X4.45Y-3.65
X4.45Y-4.25
X4.5Y-3.275
X4.575Y-4.15
X4.625Y-3.325
X4.625Y-4.25
X4.65Y-4.075
X4.675Y-4.3
X4.7Y-4.1
X4.725Y-3.35
X4.825Y-4.3
X4.83Y-4.1449
X4.85Y-3.175
X4.85Y-4.2
X4.875Y-4.025
X4.9Y-3.5
X5.0Y-3.125
X5.0Y-3.725
X5.025Y-3.45
X5.025Y-3.675
X5.025Y-3.925
X5.05Y-4.15
X5.075Y-3.725
X5.075Y-2.975
X5.275Y-2.825
X5.275Y-4.075
X5.325Y-2.725
T2
X3.6709Y-2.5961
X3.6709Y-2.6961
X3.6709Y-2.7961
X3.6709Y-2.8961
X3.6709Y-2.9961
X3.6709Y-3.0961
X3.6709Y-3.1961
X3.6709Y-3.2961
X3.6709Y-3.4559
X3.6709Y-3.5559
X3.6709Y-3.6559
X3.6709Y-3.7559
X3.6709Y-3.8559
X3.6709Y-3.9559
X3.6709Y-4.0559
X3.6709Y-4.1559
X3.6709Y-4.2559
X3.6709Y-4.3559
X5.5709Y-2.5961
X5.5709Y-2.6961
X5.5709Y-2.7961
X5.5709Y-2.8961
X5.5709Y-2.9961
X5.5709Y-3.0961
X5.5709Y-3.2961
X5.5709Y-3.3961
X5.5709Y-3.4961
X5.5709Y-3.5961
X5.5709Y-3.6961
X5.5709Y-3.7961
X5.5709Y-3.8961
X5.5709Y-3.9961
T3
X3.925Y-3.0
X3.925Y-3.1
X5.375Y-3.0
X5.375Y-3.1
T0
M30
